<?xml version="1.0" encoding="UTF-8"?>
<svg version="1.1" xmlns="http://www.w3.org/2000/svg" width="723" height="198">
<path d="M0 0 C3.44202174 0.00531213 6.8839102 0.00005243 10.32592773 -0.00634766 C21.42790262 -0.01076923 32.51813383 0.11208032 43.61303711 0.52490234 C44.56995956 0.55683685 45.52688202 0.58877136 46.51280212 0.62167358 C57.80433388 1.10157476 71.93397107 2.68368186 81.54272461 9.13037109 C82.53272461 10.61537109 82.53272461 10.61537109 83.54272461 12.13037109 C75.87901095 19.4010738 68.2209699 26.51942072 59.96459961 33.11474609 C56.93036853 35.64000938 54.19922763 38.38537209 51.45288086 41.21630859 C48.85621073 43.81828889 46.09069357 46.19662122 43.30053711 48.58740234 C41.86309747 49.84915492 40.50249964 51.1979704 39.16772461 52.56787109 C37.54272461 54.13037109 37.54272461 54.13037109 35.54272461 54.13037109 C35.21272461 55.12037109 34.88272461 56.11037109 34.54272461 57.13037109 C32.94830322 58.6986084 32.94830322 58.6986084 30.93041992 60.36279297 C26.82976425 63.84375447 23.07535563 67.54658071 19.33959961 71.41162109 C18.01727228 72.76115714 16.69433855 74.11009923 15.37084961 75.45849609 C13.31529141 77.55757911 11.26391451 79.66018683 9.22241211 81.77294922 C7.2310707 83.83054248 5.22446855 85.87214419 3.21459961 87.91162109 C2.60412781 88.55103638 1.99365601 89.19045166 1.36468506 89.84924316 C-0.3762207 91.60107422 -0.3762207 91.60107422 -3.45727539 94.13037109 C-7.64503718 93.69308262 -10.07959415 91.10084128 -13.01977539 88.31787109 C-13.54063721 87.83447266 -14.06149902 87.35107422 -14.59814453 86.85302734 C-19.34995604 82.37600729 -23.69508341 77.57873596 -27.98461914 72.66162109 C-31.42821207 69.13642644 -33.96717982 67.29292697 -38.89477539 66.75537109 C-42.78226845 67.16458089 -45.15915931 68.059461 -48.45727539 70.13037109 C-50.86428282 73.74088224 -51.48905486 76.86397786 -51.45727539 81.13037109 C-49.49614362 88.05970335 -44.76953975 93.47144398 -40.45727539 99.13037109 C-39.70188477 100.13197266 -38.94649414 101.13357422 -38.16821289 102.16552734 C-33.42511449 108.39953453 -28.56623889 114.53629965 -23.64477539 120.63037109 C-23.10570557 121.30092529 -22.56663574 121.97147949 -22.01123047 122.66235352 C-15.45501999 131.32849984 -15.45501999 131.32849984 -5.90649414 135.46630859 C0.2687452 135.55365286 4.82455379 135.32793537 9.54272461 131.13037109 C10.95165861 129.31149299 10.95165861 129.31149299 12.27319336 127.21630859 C12.79357178 126.41555908 13.3139502 125.61480957 13.85009766 124.78979492 C16.93774716 119.93853774 20.00186485 115.07360458 23.04272461 110.19287109 C23.68081055 109.17257813 24.31889648 108.15228516 24.97631836 107.10107422 C28.52155181 101.42072573 31.98779917 95.71457524 35.29858398 89.89379883 C35.70915039 89.31186768 36.1197168 88.72993652 36.54272461 88.13037109 C37.20272461 88.13037109 37.86272461 88.13037109 38.54272461 88.13037109 C38.75026367 87.46005859 38.95780273 86.78974609 39.17163086 86.09912109 C41.02704708 82.08169567 43.65477502 79.01115365 46.48022461 75.63037109 C47.05562988 74.93202148 47.63103516 74.23367187 48.22387695 73.51416016 C52.44671219 68.4031014 56.71568361 63.32927978 61.02685547 58.29248047 C62.84448096 56.16582032 64.5990344 54.05127548 66.22241211 51.77099609 C66.8759668 50.95888672 66.8759668 50.95888672 67.54272461 50.13037109 C68.20272461 50.13037109 68.86272461 50.13037109 69.54272461 50.13037109 C69.80013428 49.54771484 70.05754395 48.96505859 70.32275391 48.36474609 C71.64850579 45.93663297 73.10255127 44.32725401 75.06225586 42.38037109 C75.75512695 41.68943359 76.44799805 40.99849609 77.16186523 40.28662109 C77.88567383 39.57505859 78.60948242 38.86349609 79.35522461 38.13037109 C80.06743164 37.41880859 80.77963867 36.70724609 81.51342773 35.97412109 C85.04315677 32.47377926 88.56622693 29.13032219 92.54272461 26.13037109 C91.55272461 24.64537109 91.55272461 24.64537109 90.54272461 23.13037109 C89.61970439 20.20747373 89.45425471 18.50194465 90.16772461 15.50537109 C91.91652814 12.48471045 93.34671066 11.51046803 96.54272461 10.13037109 C100.5968461 9.45468418 102.01811695 9.76542663 105.41772461 12.13037109 C108.35421263 16.27600124 108.25796991 18.12365399 107.54272461 23.13037109 C105.37263247 26.56635031 103.0817195 27.39953199 99.29272461 28.38037109 C98.05522461 28.62787109 96.81772461 28.87537109 95.54272461 29.13037109 C95.70505585 29.7870578 95.86738708 30.44374451 96.03463745 31.12033081 C96.66523398 34.85614845 96.68222434 38.51528958 96.67211914 42.29101562 C96.67474762 43.50454208 96.67474762 43.50454208 96.6774292 44.74258423 C96.6818267 47.41613926 96.67891323 50.08962789 96.67553711 52.76318359 C96.67621167 54.63866183 96.67718296 56.51413998 96.67843628 58.38961792 C96.67991117 62.32876413 96.67776874 66.26788768 96.6730957 70.20703125 C96.66745355 75.20134393 96.67064331 80.1956022 96.67666817 85.1899128 C96.68032676 89.071527 96.67911029 92.95312887 96.67654037 96.8347435 C96.67588276 98.67232139 96.67665771 100.50990047 96.67901993 102.34747696 C96.68842207 111.73272468 96.57843232 121.09472205 96.11254883 130.46972656 C96.05760852 131.62193789 96.05760852 131.62193789 96.0015583 132.79742622 C95.21588919 146.93396133 91.29282019 160.37415228 80.54272461 170.13037109 C64.14739442 182.61840297 45.83107035 183.44973812 26.05444336 183.43115234 C24.29913738 183.43505328 22.54383233 183.43939074 20.78852844 183.44413757 C17.13014653 183.451546 13.47186122 183.45134811 9.81347656 183.44604492 C5.17444668 183.44025958 0.53581728 183.45718522 -4.10314655 183.4803896 C-7.72304004 183.49527342 -11.34284034 183.49597893 -14.96275902 183.49287987 C-16.67081685 183.49338582 -18.37888094 183.49848344 -20.08690834 183.50869179 C-28.73102099 183.55402751 -37.13006896 183.27248207 -45.66503906 181.81079102 C-46.3398422 181.69658719 -47.01464533 181.58238337 -47.70989704 181.46471882 C-60.66680022 178.98825625 -71.76849439 171.81117928 -79.20727539 161.00537109 C-86.64904767 148.65338834 -87.56818302 135.50542602 -87.80883789 121.46240234 C-87.83199066 120.23293381 -87.85514343 119.00346527 -87.8789978 117.73674011 C-87.92653345 115.12865107 -87.97177974 112.52051942 -88.01489258 109.91235352 C-88.08082301 106.02843018 -88.15920106 102.1449001 -88.23852539 98.26123047 C-88.47850173 85.34065354 -88.52063286 72.43603654 -88.16821289 59.51708984 C-88.14433502 58.36207474 -88.12045715 57.20705963 -88.09585571 56.01704407 C-87.58681563 40.98628601 -84.27023576 27.36976001 -73.74243164 16.23193359 C-66.01587403 9.12614215 -57.54060875 5.63538992 -47.45727539 3.13037109 C-46.21010742 2.80939453 -46.21010742 2.80939453 -44.93774414 2.48193359 C-30.37080174 -0.85179452 -14.83451388 -0.02712931 0 0 Z " fill="#831ABF" transform="translate(96.457275390625,10.86962890625)"/>
<path d="M0 0 C15.40443314 -0.88531225 30.97741424 5.76523519 42.4765625 15.5703125 C46.61295379 19.52421594 50.78457586 23.86003416 53.0390625 29.1953125 C52.77305761 31.92512753 52.33835833 32.93580604 50.24487305 34.75097656 C49.47957275 35.23276367 48.71427246 35.71455078 47.92578125 36.2109375 C47.08982422 36.73945312 46.25386719 37.26796875 45.39257812 37.8125 C44.51279297 38.35132813 43.63300781 38.89015625 42.7265625 39.4453125 C41.85837891 39.99960938 40.99019531 40.55390625 40.09570312 41.125 C33.56415486 45.1953125 33.56415486 45.1953125 29.0390625 45.1953125 C27.14453125 43.40234375 27.14453125 43.40234375 25.2265625 41.0078125 C18.5592878 33.21505289 12.46796432 29.38403574 2.0390625 28.1953125 C-8.3231318 28.45352536 -15.93873059 30.81201947 -23.1484375 38.2578125 C-31.31254545 48.74813203 -32.4457505 60.36462378 -30.9609375 73.1953125 C-30.12534744 76.92979321 -28.88950037 79.9047021 -26.9609375 83.1953125 C-26.5484375 83.98164062 -26.1359375 84.76796875 -25.7109375 85.578125 C-21.44851955 92.91626499 -15.06973644 97.19019945 -6.9609375 99.5703125 C2.92032372 101.47513394 11.1341036 100.1349987 19.5625 94.51171875 C23.30057896 91.69908652 26.34564163 89.04546899 29.0390625 85.1953125 C32.75192667 85.77248628 35.45648046 86.78929456 38.68359375 88.69921875 C39.52470703 89.19228516 40.36582031 89.68535156 41.23242188 90.19335938 C42.52889648 90.96776367 42.52889648 90.96776367 43.8515625 91.7578125 C44.73521484 92.27794922 45.61886719 92.79808594 46.52929688 93.33398438 C48.70307678 94.614752 50.87273337 95.9019959 53.0390625 97.1953125 C50.9562878 106.70727577 41.74757115 113.94696618 34.0390625 119.1953125 C18.72445771 128.35544994 2.27813354 129.69010864 -14.9609375 126.1953125 C-30.65210673 121.96091645 -43.87685964 111.35336026 -52.2890625 97.51953125 C-57.12818406 87.89781992 -60.82577678 77.02747857 -60.9609375 66.1953125 C-61.02152344 65.46183594 -61.08210937 64.72835937 -61.14453125 63.97265625 C-62.00998377 48.26338168 -55.70856291 32.5682111 -45.5859375 20.8203125 C-32.59965144 7.26271774 -18.36253753 1.828938 0 0 Z " fill="#801CB8" transform="translate(287.9609375,33.8046875)"/>
<path d="M0 0 C8.58 0 17.16 0 26 0 C26.67423346 3.37116732 27.12453311 5.76460142 27.11352539 9.0559082 C27.11344986 9.81631912 27.11337433 10.57673004 27.11329651 11.36018372 C27.10813522 12.1655809 27.10297394 12.97097809 27.09765625 13.80078125 C27.0962413 14.63715622 27.09482635 15.47353119 27.09336853 16.33525085 C27.08779184 18.994371 27.07524365 21.6534055 27.0625 24.3125 C27.05748199 26.12044149 27.05291961 27.9283843 27.04882812 29.73632812 C27.03783004 34.15758484 27.0205815 38.57877793 27 43 C27.66 43 28.32 43 29 43 C29 42.34 29 41.68 29 41 C30.86967605 40.01070539 32.74601378 39.03399531 34.625 38.0625 C35.66914063 37.51722656 36.71328125 36.97195312 37.7890625 36.41015625 C46.47507545 32.59549606 56.39873739 33.18203005 65.328125 35.90625 C73.98957551 39.45187302 79.03397529 45.7172137 83 54 C86.72443047 63.57710692 86.14949586 74.74745844 86.09765625 84.890625 C86.0962413 85.96125183 86.09482635 87.03187866 86.09336853 88.13494873 C86.08783481 91.50666266 86.07529534 94.87830663 86.0625 98.25 C86.05747641 100.55598861 86.05291502 102.86197829 86.04882812 105.16796875 C86.03874415 110.77869353 86.01915651 116.38926979 86 122 C77.42 122.33 68.84 122.66 60 123 C59.93941406 119.86757812 59.87882812 116.73515625 59.81640625 113.5078125 C59.75445199 110.44626851 59.69113293 107.38475555 59.62768555 104.32324219 C59.584594 102.20901294 59.54290294 100.09475463 59.50268555 97.98046875 C59.44435267 94.92699456 59.38084592 91.87366321 59.31640625 88.8203125 C59.29969376 87.88760529 59.28298126 86.95489807 59.26576233 85.993927 C59.50853385 73.07857534 59.50853385 73.07857534 54 62 C49.23202596 58.67350648 44.63838213 58.14281353 39 59 C34.80013113 60.35620766 31.82341907 61.96408569 29.0625 65.4375 C27.33529253 69.60311802 26.87577179 73.58233081 26.79467773 78.06567383 C26.77473251 79.04631302 26.75478729 80.02695221 26.73423767 81.03730774 C26.71752518 82.0833165 26.70081268 83.12932526 26.68359375 84.20703125 C26.66281265 85.28756271 26.64203156 86.36809418 26.62062073 87.48136902 C26.55535964 90.92501611 26.49634925 94.36873795 26.4375 97.8125 C26.39429249 100.15039828 26.35067749 102.48828907 26.30664062 104.82617188 C26.19893729 110.55070583 26.09968913 116.27529843 26 122 C17.42 122 8.84 122 0 122 C-0.65358572 118.07848568 -1.12516386 114.99380049 -1.12698364 111.14282227 C-1.13121338 109.75512131 -1.13121338 109.75512131 -1.13552856 108.33938599 C-1.13350433 107.34180267 -1.1314801 106.34421936 -1.12939453 105.31640625 C-1.13114685 104.25227509 -1.13289917 103.18814392 -1.13470459 102.09176636 C-1.13909785 98.58199421 -1.13619398 95.07227264 -1.1328125 91.5625 C-1.13348626 89.11922191 -1.1344569 86.67594388 -1.13571167 84.23266602 C-1.13718522 79.11506511 -1.13504506 73.99748168 -1.13037109 68.87988281 C-1.12467403 62.32276519 -1.12795486 55.76568851 -1.13394356 49.20857239 C-1.13755839 44.16426282 -1.13640633 39.11996294 -1.13381577 34.07565308 C-1.13314905 31.65794876 -1.13396599 29.24024357 -1.13629532 26.82254028 C-1.13883693 23.44286775 -1.13495988 20.06326136 -1.12939453 16.68359375 C-1.13141876 15.68601044 -1.13344299 14.68842712 -1.13552856 13.66061401 C-1.13270874 12.73548004 -1.12988892 11.81034607 -1.12698364 10.85717773 C-1.12660662 10.05932358 -1.12622959 9.26146942 -1.12584114 8.43943787 C-0.97963067 5.60513936 -0.46657538 2.79945226 0 0 Z " fill="#7E1AB5" transform="translate(349,35)"/>
<path d="M0 0 C8.91 0 17.82 0 27 0 C26.979375 2.743125 26.95875 5.48625 26.9375 8.3125 C26.87448165 27.2103187 27.51807508 46.11008122 28 65 C28.66 64.01 29.32 63.02 30 62 C30.66 62 31.32 62 32 62 C32.23589844 61.44441406 32.47179687 60.88882813 32.71484375 60.31640625 C34.3127752 57.43624409 36.305005 55.33630924 38.5625 52.9375 C42.97027059 48.18477345 47.06830969 43.30197486 51.08984375 38.21484375 C53.36843619 35.57279484 54.94794905 34.08900861 58.49609375 33.78881836 C59.95208984 33.81407593 59.95208984 33.81407593 61.4375 33.83984375 C62.49710938 33.85080078 63.55671875 33.86175781 64.6484375 33.87304688 C65.75445313 33.89431641 66.86046875 33.91558594 68 33.9375 C70.18743424 33.97191767 72.3749411 34.00206174 74.5625 34.02734375 C76.01849609 34.05429321 76.01849609 34.05429321 77.50390625 34.08178711 C80.1318847 34.11436634 80.1318847 34.11436634 83 33 C83 38.0158077 81.83069982 38.71014922 78.4375 42.25 C77.50989222 43.23388081 76.58281087 44.2182582 75.65625 45.203125 C74.7796875 46.12609375 73.903125 47.0490625 73 48 C68.07749618 53.44703291 63.46671924 59.11272744 58.91796875 64.875 C58.28503906 65.57625 57.65210938 66.2775 57 67 C56.34 67 55.68 67 55 67 C53.30929284 69.75079679 53.30929284 69.75079679 53.27954102 72.88500977 C54.09068231 75.26620834 55.16539521 77.01697562 56.58984375 79.08984375 C57.1219043 79.86763184 57.65396484 80.64541992 58.20214844 81.44677734 C58.77481445 82.26871582 59.34748047 83.0906543 59.9375 83.9375 C60.81776855 85.21294678 60.81776855 85.21294678 61.71582031 86.51416016 C65.84880624 92.45968179 70.16631937 98.21745323 74.6328125 103.9140625 C86 118.73267327 86 118.73267327 86 121 C62.34745679 123.19339797 62.34745679 123.19339797 55.78759766 119.88378906 C52.32800511 116.91150571 50.27872605 113.12848327 48.19677734 109.12304688 C45.98766802 105.20415363 43.087628 101.77846901 40.3125 98.25 C35 91.33859223 35 91.33859223 35 89 C34.34 89 33.68 89 33 89 C33 89.66 33 90.32 33 91 C32.19175781 91.60199219 31.38351562 92.20398438 30.55078125 92.82421875 C26.91577066 96.31562399 27.32977567 100.54609944 27.20507812 105.32617188 C27.19927734 106.47666016 27.19347656 107.62714844 27.1875 108.8125 C27.16236328 109.98232422 27.13722656 111.15214844 27.11132812 112.35742188 C27.05252818 115.2386193 27.01619468 118.11829983 27 121 C23.91538494 122.02820502 22.10314761 122.04582849 18.89453125 121.87890625 C17.91162109 121.83056641 16.92871094 121.78222656 15.91601562 121.73242188 C14.89185547 121.67634766 13.86769531 121.62027344 12.8125 121.5625 C11.77673828 121.51029297 10.74097656 121.45808594 9.67382812 121.40429688 C7.11557951 121.27461607 4.55772062 121.13965022 2 121 C1.67 121.99 1.34 122.98 1 124 C0.07140658 94.89501736 -0.09020076 65.80446138 -0.0625 36.6875 C-0.06164398 35.78135326 -0.06078796 34.87520653 -0.05990601 33.9416008 C-0.04843165 22.62771181 -0.02746185 11.31386081 0 0 Z " fill="#7D1BB4" transform="translate(630,36)"/>
<path d="M0 0 C8.58347562 7.88833499 14.54281348 18.12024962 15.08886719 29.92041016 C15.45700836 43.08598329 15.45700836 43.08598329 14 46 C-6.13 46 -26.26 46 -47 46 C-44.95861632 53.97250941 -44.95861632 53.97250941 -40.0625 58.5 C-39.39347656 58.9640625 -38.72445312 59.428125 -38.03515625 59.90625 C-31.9872157 63.15658274 -24.65800606 62.5721724 -18 62 C-14.97252428 60.96831557 -12.74567722 59.68964752 -10 58 C-9.34 58 -8.68 58 -8 58 C-7.01 56.02 -7.01 56.02 -6 54 C-1.28629244 54.64985095 2.57686444 56.51561392 6.8125 58.5625 C7.50537109 58.89185547 8.19824219 59.22121094 8.91210938 59.56054688 C10.61044948 60.36872251 12.30555769 61.18368377 14 62 C12.91516009 68.2447836 7.62268397 72.93258127 2.8125 76.75 C-4.44311381 81.57620604 -13.39379045 83.61510691 -22 84 C-22.73089844 84.06316406 -23.46179688 84.12632812 -24.21484375 84.19140625 C-35.89708058 84.79398419 -47.95382575 81.40850478 -57 74 C-58.03125 73.278125 -59.0625 72.55625 -60.125 71.8125 C-68.98305828 64.1141318 -72.60834504 52.95784926 -73.8125 41.6875 C-74.54975877 28.64723545 -71.67471205 17.55272906 -64 7 C-63.195625 5.7934375 -63.195625 5.7934375 -62.375 4.5625 C-46.8563918 -12.18126148 -17.93088629 -14.06223616 0 0 Z M-44.5625 18.375 C-46.40493693 21.3971765 -46.40493693 21.3971765 -47 27 C-34.79 27 -22.58 27 -10 27 C-12.87861855 18.80504488 -12.87861855 18.80504488 -19 14 C-28.18594675 10.55526997 -37.20047227 11.55165722 -44.5625 18.375 Z " fill="#7D19B3" transform="translate(517,78)"/>
<path d="M0 0 C4.12339488 3.67042097 7.93228107 7.3984216 11 12 C11 12.99 11 13.98 11 15 C8.89398991 16.52463265 6.86685132 17.83380715 4.625 19.125 C4.02171875 19.48464844 3.4184375 19.84429687 2.796875 20.21484375 C0.56112124 21.54139098 -1.67421211 22.83710606 -4 24 C-4.33 24.99 -4.66 25.98 -5 27 C-5.66 27 -6.32 27 -7 27 C-7.226875 26.21625 -7.45375 25.4325 -7.6875 24.625 C-8.76041667 21.82291667 -8.76041667 21.82291667 -11.375 20.8125 C-12.24125 20.544375 -13.1075 20.27625 -14 20 C-14.598125 19.649375 -15.19625 19.29875 -15.8125 18.9375 C-22.35310749 16.1343825 -29.40761907 16.64864589 -36 19 C-40.85813696 21.93853603 -44.12908693 25.59514001 -46 31 C-47.70633028 39.3882623 -47.02062446 46.79898405 -42.8125 54.3125 C-39.68258919 58.89330241 -36.23688634 61.19967096 -30.8671875 62.52734375 C-24.50778315 63.5133838 -18.26950356 63.09978588 -12.76171875 59.5625 C-11.39156782 58.52048394 -10.04360819 57.4482217 -8.7265625 56.33984375 C-7 55 -7 55 -4 54 C-2.09887695 54.71264648 -2.09887695 54.71264648 0.01171875 55.87109375 C0.76904297 56.28037109 1.52636719 56.68964844 2.30664062 57.11132812 C3.09232422 57.54896484 3.87800781 57.98660156 4.6875 58.4375 C5.48478516 58.87126953 6.28207031 59.30503906 7.10351562 59.75195312 C9.07410554 60.82574763 11.03909927 61.90864182 13 63 C13 67 13 67 11 70 C10.34 70 9.68 70 9 70 C8.74347656 70.598125 8.48695313 71.19625 8.22265625 71.8125 C4.71589482 78.08657795 -3.3968387 81.84047555 -10 84 C-23.48980467 87.17407169 -37.67635845 87.17123927 -50.10546875 80.2109375 C-61.06485523 73.20596882 -68.12147275 64.5306265 -72 52 C-75.10352007 37.77553303 -72.53428136 24.31846865 -65 12 C-58.04212426 1.98465936 -48.23844725 -3.96359106 -36.3125 -6.4375 C-24.08534106 -8.0463367 -10.43615848 -7.34086499 0 0 Z " fill="#7C19B2" transform="translate(611,76)"/>
<path d="M0 0 C2.86972996 1.99633389 4.65210765 3.47229883 5.44921875 6.97265625 C5.62863537 10.28258363 5.27190263 12.5694875 3.5 15.375 C0.08271137 17.59623761 -3.00744011 18.20148802 -7 19 C-6.75650314 19.98503006 -6.75650314 19.98503006 -6.50808716 20.98995972 C-5.87749063 24.72577735 -5.86050027 28.38491849 -5.87060547 32.16064453 C-5.86885315 32.96966217 -5.86710083 33.77867981 -5.86529541 34.61221313 C-5.86089791 37.28576816 -5.86381138 39.9592568 -5.8671875 42.6328125 C-5.86651294 44.50829074 -5.86554165 46.38376889 -5.86428833 48.25924683 C-5.86281344 52.19839304 -5.86495587 56.13751658 -5.86962891 60.07666016 C-5.87527106 65.07097283 -5.8720813 70.06523111 -5.86605644 75.0595417 C-5.86239785 78.9411559 -5.86361432 82.82275778 -5.86618423 86.70437241 C-5.86684185 88.54195029 -5.8660669 90.37952938 -5.86370468 92.21710587 C-5.85430831 101.59659154 -5.96253171 110.9542298 -6.42236328 120.32373047 C-6.45794279 121.08977663 -6.4935223 121.85582279 -6.53017998 122.64508247 C-7.01483596 131.44339112 -8.40514391 140.34190652 -13 148 C-14 146 -14 146 -13.2578125 143.20703125 C-12.88398438 142.08683594 -12.51015625 140.96664062 -12.125 139.8125 C-9.40776751 131.65130171 -8.85444003 124.09067544 -8.88647461 115.56665039 C-8.88632858 114.5415033 -8.88618256 113.5163562 -8.8860321 112.46014404 C-8.88672587 109.08929286 -8.89449311 105.71849772 -8.90234375 102.34765625 C-8.90420983 100.00353526 -8.90563284 97.65941388 -8.90663147 95.31529236 C-8.91044164 89.15862951 -8.9202591 83.00199041 -8.93133545 76.84533691 C-8.94158185 70.55770184 -8.946136 64.2700629 -8.95117188 57.98242188 C-8.96188273 45.65493751 -8.97894111 33.32747073 -9 21 C-12.94385909 21 -13.70616592 22.22498218 -16.5625 24.875 C-17.43777344 25.68582031 -18.31304687 26.49664062 -19.21484375 27.33203125 C-23.54896595 31.48379207 -27.79638171 35.71588689 -32 40 C-32 37 -32 37 -30.51879883 35.16235352 C-29.83841553 34.49131592 -29.15803223 33.82027832 -28.45703125 33.12890625 C-27.71259766 32.38962891 -26.96816406 31.65035156 -26.20117188 30.88867188 C-25.41291016 30.12103516 -24.62464844 29.35339844 -23.8125 28.5625 C-22.65911133 27.4168457 -22.65911133 27.4168457 -21.48242188 26.24804688 C-17.80251957 22.618684 -14.13982754 19.11109284 -10 16 C-10.66 15.01 -11.32 14.02 -12 13 C-12.92302022 10.07710264 -13.0884699 8.37157356 -12.375 5.375 C-9.56008669 0.51287701 -5.43266194 -0.90544366 0 0 Z " fill="#42155C" transform="translate(199,21)"/>
<path d="M0 0 C2.16509478 4.33018956 2.26712219 7.43986244 2.1875 12.125 C2.1865332 13.21748047 2.1865332 13.21748047 2.18554688 14.33203125 C2.14074248 19.71851504 2.14074248 19.71851504 1 22 C-19.13 22 -39.26 22 -60 22 C-57.95861632 29.97250941 -57.95861632 29.97250941 -53.0625 34.5 C-52.39347656 34.9640625 -51.72445313 35.428125 -51.03515625 35.90625 C-44.99047973 39.15482855 -37.65437141 38.5792868 -31 38 C-28.02995724 36.94810985 -25.72207507 35.62277552 -23 34 C-22.01 34.495 -22.01 34.495 -21 35 C-24.90669217 39.49899711 -30.60020993 40.57431677 -36.33984375 41.29296875 C-45.22070266 41.62073331 -51.93177432 38.39012109 -59.15234375 33.5 C-61 31 -61 31 -63 20 C-42.21 20 -21.42 20 0 20 C0 13.4 0 6.8 0 0 Z " fill="#491667" transform="translate(530,102)"/>
<path d="M0 0 C8.58 0 17.16 0 26 0 C26.67423346 3.37116732 27.12453311 5.76460142 27.11352539 9.0559082 C27.11344986 9.81631912 27.11337433 10.57673004 27.11329651 11.36018372 C27.10813522 12.1655809 27.10297394 12.97097809 27.09765625 13.80078125 C27.0962413 14.63715622 27.09482635 15.47353119 27.09336853 16.33525085 C27.08779184 18.994371 27.07524365 21.6534055 27.0625 24.3125 C27.05748199 26.12044149 27.05291961 27.9283843 27.04882812 29.73632812 C27.03783004 34.15758484 27.0205815 38.57877793 27 43 C27.66 43.33 28.32 43.66 29 44 C28.34 44.99 27.68 45.98 27 47 C26.34 47 25.68 47 25 47 C25 32.15 25 17.3 25 2 C17.08 2 9.16 2 1 2 C1.00580078 3.91159912 1.01160156 5.82319824 1.01757812 7.79272461 C1.06204122 29.518848 0.84308113 51.23647086 0.53643799 72.96020508 C0.47445487 77.38685901 0.41509521 81.81354819 0.35546875 86.24023438 C0.23944521 94.826858 0.12068127 103.41344058 0 112 C-0.33 112 -0.66 112 -1 112 C-1.02316981 98.28294419 -1.0409388 84.56589303 -1.05181217 70.84882164 C-1.05703082 64.47944828 -1.06411006 58.11008831 -1.07543945 51.74072266 C-1.08630441 45.59399916 -1.09228451 39.44728854 -1.09487724 33.30055618 C-1.09672497 30.95541811 -1.10033308 28.61028075 -1.10573006 26.26514816 C-1.11298831 22.98062364 -1.11398891 19.69615235 -1.11352539 16.41162109 C-1.11712067 15.44201447 -1.12071594 14.47240784 -1.12442017 13.47341919 C-1.1230455 12.57327087 -1.12167084 11.67312256 -1.12025452 10.74569702 C-1.12117631 9.96954733 -1.1220981 9.19339764 -1.12304783 8.39372826 C-0.97813308 5.57460885 -0.46407229 2.78443377 0 0 Z " fill="#5A1D7B" transform="translate(349,35)"/>
<path d="M0 0 C2.28283917 3.42425876 2.48886189 5.13727544 2.37890625 9.125 C2 11 2 11 -0.125 13 C-3.42897847 14.1492099 -5.52903112 14.50618296 -9 14 C-11.875 12.4375 -11.875 12.4375 -14 10 C-14.6875 6.5 -14.6875 6.5 -14 3 C-9.39158379 -1.60841621 -5.95539945 -1.48884986 0 0 Z " fill="#9029CB" transform="translate(202,23)"/>
<path d="M0 0 C0.732686 -0.00014603 1.46537201 -0.00029205 2.22026062 -0.0004425 C4.61171562 0.00024716 7.00309007 0.00799463 9.39453125 0.01586914 C11.06461545 0.01773669 12.73470021 0.019159 14.40478516 0.02015686 C18.77770529 0.02395551 23.15059165 0.03376285 27.52349854 0.04486084 C31.99482771 0.05513228 36.4661624 0.05966671 40.9375 0.06469727 C49.69402583 0.07538775 58.45052433 0.09243194 67.20703125 0.11352539 C67.20703125 0.44352539 67.20703125 0.77352539 67.20703125 1.11352539 C49.45053249 1.89311945 31.75144486 2.21926693 13.97949219 2.07641602 C12.85876312 2.07007141 12.85876312 2.07007141 11.71539307 2.06359863 C9.68328092 2.05179502 7.65120582 2.03403962 5.61914062 2.01586914 C2.65234341 2.10078034 0.08848959 2.46746276 -2.79296875 3.11352539 C-4.75132384 3.1322018 -6.71039771 3.10949829 -8.66796875 3.05102539 C-13.45420351 3.0101174 -17.23143894 3.56432659 -21.79296875 5.11352539 C-23.2086676 5.36894898 -24.62542998 5.61851869 -26.04296875 5.86352539 C-31.87647414 7.10427096 -36.68380962 10.15262687 -41.79296875 13.11352539 C-42.91445313 13.64719727 -42.91445313 13.64719727 -44.05859375 14.19165039 C-46.3848843 15.42814717 -46.67331301 16.74248971 -47.79296875 19.11352539 C-48.63859375 20.12415039 -49.48421875 21.13477539 -50.35546875 22.17602539 C-52.92834674 24.91558227 -52.92834674 24.91558227 -53.79296875 28.11352539 C-54.45296875 28.11352539 -55.11296875 28.11352539 -55.79296875 28.11352539 C-53.26028289 19.24269676 -47.35694382 13.32072448 -39.50878906 8.71289062 C-27.30248532 2.06330469 -13.79634786 -0.02330464 0 0 Z " fill="#A228E2" transform="translate(71.79296875,12.886474609375)"/>
<path d="M0 0 C0.99 0.495 0.99 0.495 2 1 C-2.18328164 5.30665428 -6.38255879 9.59679415 -10.59765625 13.87231445 C-12.02993575 15.32977581 -13.45770063 16.79168787 -14.88085938 18.25805664 C-16.92454938 20.3622319 -18.98381609 22.44999021 -21.046875 24.53515625 C-21.68244324 25.19653091 -22.31801147 25.85790558 -22.97283936 26.5393219 C-23.57315979 27.14001999 -24.17348022 27.74071808 -24.79199219 28.35961914 C-25.57808868 29.16237022 -25.57808868 29.16237022 -26.38006592 29.9813385 C-28 31 -28 31 -30.03619385 30.79515076 C-33.06783738 29.56762958 -35.22073186 27.40405414 -37.5625 25.1875 C-38.08336182 24.70410156 -38.60422363 24.22070312 -39.14086914 23.72265625 C-43.89268065 19.24563619 -48.23780802 14.44836486 -52.52734375 9.53125 C-56.01469084 5.96126435 -58.48144974 4.10846788 -63.5 3.75 C-66.43690389 3.95977885 -69.14381237 4.30759088 -72 5 C-70.30802484 2.92223246 -69.40295429 2.07698438 -66.73046875 1.56640625 C-65.47169922 1.56447266 -65.47169922 1.56447266 -64.1875 1.5625 C-63.35605469 1.54316406 -62.52460937 1.52382812 -61.66796875 1.50390625 C-54.64642467 2.80952279 -49.41161547 9.13981584 -44.4375 13.875 C-43.69564453 14.56980469 -42.95378906 15.26460937 -42.18945312 15.98046875 C-38.15860304 19.79236794 -34.44370708 23.6493364 -31 28 C-26.3381327 27.13266401 -23.90672902 24.2867307 -20.703125 20.99609375 C-20.10949158 20.39821548 -19.51585815 19.80033722 -18.90423584 19.18434143 C-17.01232805 17.27565898 -15.13112501 15.3568046 -13.25 13.4375 C-11.96813998 12.14059164 -10.6855957 10.84435922 -9.40234375 9.54882812 C-6.26023928 6.37367043 -3.12769461 3.18935054 0 0 Z " fill="#57157B" transform="translate(121,74)"/>
<path d="M0 0 C2 2 2 2 2.24609566 3.83906746 C2.24333028 4.96457669 2.24333028 4.96457669 2.24050903 6.11282349 C2.24325836 6.97381653 2.24600769 7.83480957 2.24884033 8.72189331 C2.24164978 9.66847809 2.23445923 10.61506287 2.22705078 11.59033203 C2.22734283 12.58548828 2.22763489 13.58064453 2.22793579 14.60595703 C2.2265386 17.90666316 2.21095904 21.20714563 2.1953125 24.5078125 C2.19158376 26.791818 2.18873613 29.0758251 2.18673706 31.35983276 C2.1790897 37.3801513 2.15943174 43.40037379 2.1373291 49.4206543 C2.1168944 55.5603709 2.10774043 61.70010297 2.09765625 67.83984375 C2.07618689 79.89327143 2.04203767 91.94662774 2 104 C1.67 104 1.34 104 1 104 C0.67 71 0.34 38 0 4 C-4.3294297 5.73177188 -5.75382622 6.3821869 -8.76953125 9.4765625 C-9.76049805 10.48203125 -9.76049805 10.48203125 -10.77148438 11.5078125 C-11.78178711 12.55582031 -11.78178711 12.55582031 -12.8125 13.625 C-13.50537109 14.33140625 -14.19824219 15.0378125 -14.91210938 15.765625 C-16.61506879 17.50381806 -18.31061192 19.24863061 -20 21 C-20 18 -20 18 -18.70239258 16.33007812 C-18.10579834 15.73646484 -17.5092041 15.14285156 -16.89453125 14.53125 C-16.24033203 13.87769531 -15.58613281 13.22414063 -14.91210938 12.55078125 C-14.21923828 11.87402344 -13.52636719 11.19726562 -12.8125 10.5 C-12.13896484 9.82324219 -11.46542969 9.14648438 -10.77148438 8.44921875 C-7.39950982 5.11343124 -4.26391988 2.18577641 0 0 Z " fill="#B028E8" transform="translate(189,40)"/>
<path d="M0 0 C7.67600917 3.53096422 14.56690134 10.22884361 18 18 C17.71500182 20.53667251 17.37021033 21.66861192 15.44946289 23.38793945 C14.7971167 23.79230225 14.14477051 24.19666504 13.47265625 24.61328125 C12.76302734 25.05607422 12.05339844 25.49886719 11.32226562 25.95507812 C10.20368164 26.62700195 10.20368164 26.62700195 9.0625 27.3125 C8.32064453 27.77978516 7.57878906 28.24707031 6.81445312 28.72851562 C2.72145472 31.24071863 2.72145472 31.24071863 1 32 C0.34 31.67 -0.32 31.34 -1 31 C1.45740296 29.35276274 3.91587001 27.70715536 6.375 26.0625 C7.42300781 25.35963867 7.42300781 25.35963867 8.4921875 24.64257812 C9.1625 24.19462891 9.8328125 23.74667969 10.5234375 23.28515625 C11.14138184 22.87144775 11.75932617 22.45773926 12.39599609 22.03149414 C14 21 14 21 16 20 C10.80277951 13.34707654 5.61170916 7.27855799 -1 2 C-0.67 1.34 -0.34 0.68 0 0 Z " fill="#661B8E" transform="translate(323,45)"/>
<path d="M0 0 C4.62675657 1.3922459 8.64686231 3.29520984 12.875 5.625 C14.02742187 6.25664062 15.17984375 6.88828125 16.3671875 7.5390625 C17.67042969 8.26222656 17.67042969 8.26222656 19 9 C19 13 19 13 17 16 C16.34 15.67 15.68 15.34 15 15 C15.33 13.35 15.66 11.7 16 10 C13.92426919 8.79715599 11.84116905 7.61294299 9.75 6.4375 C8.87021484 5.92413086 8.87021484 5.92413086 7.97265625 5.40039062 C4.54686847 3.4768676 4.54686847 3.4768676 0.71484375 3.16796875 C-1.19082353 4.00287414 -1.19082353 4.00287414 -3.1875 5.875 C-9.19340663 10.41279612 -15.5434732 11.33547665 -22.93359375 11.30078125 C-25 11 -25 11 -27 9 C-25.700625 9.04125 -24.40125 9.0825 -23.0625 9.125 C-13.53611869 9.06527347 -6.84751665 6.84751665 0 0 Z " fill="#541576" transform="translate(605,130)"/>
<path d="M0 0 C2 1 2 1 2.7890625 3.07421875 C3.06492187 3.93660156 3.34078125 4.79898438 3.625 5.6875 C5.74441336 11.24896813 8.76794441 14.23068932 14 17 C20.12820828 19.12130287 28.55875236 19.21877521 34.625 17.0703125 C36.44580543 16.09966254 38.227675 15.05657837 40 14 C40.66 14.33 41.32 14.66 42 15 C38.09330783 19.49899711 32.39979007 20.57431677 26.66015625 21.29296875 C17.93268859 21.61507213 10.56943423 18.65108784 3.8203125 13.18359375 C0.602954 9.32414439 0.27399 4.88762815 0 0 Z " fill="#4E126E" transform="translate(467,122)"/>
<path d="M0 0 C1.32 0.33 2.64 0.66 4 1 C2.55575365 4.23861303 0.74227753 6.61969163 -1.625 9.25 C-2.25664063 9.95640625 -2.88828125 10.6628125 -3.5390625 11.390625 C-4.02117188 11.92171875 -4.50328125 12.4528125 -5 13 C-5 10 -5 10 -3 8 C-2.3574765 5.93125966 -2.3574765 5.93125966 -2 4 C-5.72890255 3.8835138 -9.45733514 3.81265424 -13.1875 3.75 C-14.24259766 3.71648437 -15.29769531 3.68296875 -16.38476562 3.6484375 C-22.63689724 3.51038251 -22.63689724 3.51038251 -28.23828125 6.015625 C-28.81964844 6.67046875 -29.40101563 7.3253125 -30 8 C-28.5942095 4.60267295 -27.1452949 2.91060797 -24 1 C-21.34277344 0.65942383 -21.34277344 0.65942383 -18.359375 0.70703125 C-16.75449219 0.7215332 -16.75449219 0.7215332 -15.1171875 0.73632812 C-14.00601563 0.76146484 -12.89484375 0.78660156 -11.75 0.8125 C-10.06003906 0.83280273 -10.06003906 0.83280273 -8.3359375 0.85351562 C-5.55680736 0.88884355 -2.77864637 0.9381748 0 1 C0 0.67 0 0.34 0 0 Z " fill="#41185E" transform="translate(710,69)"/>
<path d="M0 0 C0.76376953 -0.00773437 1.52753906 -0.01546875 2.31445312 -0.0234375 C7.22266185 -0.00664294 11.28164736 0.69186605 15.9375 2.25 C12.08521542 3.63682245 8.92569876 2.82893208 4.9375 2.25 C-3.56546143 1.72763377 -12.28741502 2.39270015 -20.125 5.9375 C-21.094375 6.370625 -22.06375 6.80375 -23.0625 7.25 C-23.7225 6.92 -24.3825 6.59 -25.0625 6.25 C-23.9075 5.63125 -22.7525 5.0125 -21.5625 4.375 C-20.9128125 4.02695313 -20.263125 3.67890625 -19.59375 3.3203125 C-13.07679627 0.564687 -6.9829326 -0.07107311 0 0 Z " fill="#9C25D9" transform="translate(585.0625,70.75)"/>
<path d="M0 0 C0 0.33 0 0.66 0 1 C-2.64 1 -5.28 1 -8 1 C-8.33 1.66 -8.66 2.32 -9 3 C-9 2.34 -9 1.68 -9 1 C-18.51121417 0.53586126 -18.51121417 0.53586126 -27 4.0703125 C-29.16981567 6.28880993 -31.14620783 8.51320562 -33 11 C-33.66 10.67 -34.32 10.34 -35 10 C-28.1091597 -4.29211321 -13.58212576 -0.96054638 0 0 Z " fill="#9822D3" transform="translate(711,72)"/>
<path d="M0 0 C0.66 1.32 1.32 2.64 2 4 C0.77410156 3.99806641 0.77410156 3.99806641 -0.4765625 3.99609375 C-5.79576797 5.51165451 -8.64560978 9.11393224 -12.375 13.0625 C-13.47908203 14.20041992 -13.47908203 14.20041992 -14.60546875 15.36132812 C-16.41546705 17.2300926 -18.21275293 19.10950812 -20 21 C-20 18 -20 18 -18.70239258 16.33007812 C-18.10579834 15.73646484 -17.5092041 15.14285156 -16.89453125 14.53125 C-16.24033203 13.87769531 -15.58613281 13.22414063 -14.91210938 12.55078125 C-14.21923828 11.87402344 -13.52636719 11.19726562 -12.8125 10.5 C-12.13896484 9.82324219 -11.46542969 9.14648438 -10.77148438 8.44921875 C-7.39950982 5.11343124 -4.26391988 2.18577641 0 0 Z " fill="#9F27DE" transform="translate(189,40)"/>
<path d="M0 0 C6.22091371 0.45243009 11.60148908 1.75193326 17 5 C17.99 6.485 17.99 6.485 19 8 C17.35 9.65 15.7 11.3 14 13 C13.34 12.67 12.68 12.34 12 12 C12.66 10.02 13.32 8.04 14 6 C9.38 4.35 4.76 2.7 0 1 C0 0.67 0 0.34 0 0 Z " fill="#5A1C7D" transform="translate(161,15)"/>
<path d="M0 0 C0.66 0.33 1.32 0.66 2 1 C0.4279233 2.98909704 -1.15646056 4.96571876 -2.75 6.9375 C-3.1934375 7.50146484 -3.636875 8.06542969 -4.09375 8.64648438 C-7.47893123 12.8032878 -7.47893123 12.8032878 -10.328125 13.87890625 C-11.15570313 13.93884766 -11.15570313 13.93884766 -12 14 C-10.49559933 10.57592139 -8.49408648 8.08625426 -6 5.3125 C-5.29875 4.52488281 -4.5975 3.73726563 -3.875 2.92578125 C-2 1 -2 1 0 0 Z " fill="#751CA5" transform="translate(164,63)"/>
<path d="M0 0 C6.61085476 0.48969295 11.94977014 2.33442742 18 5 C17.01 5.495 17.01 5.495 16 6 C15.835 6.825 15.67 7.65 15.5 8.5 C15.335 9.325 15.17 10.15 15 11 C14.01 11.495 14.01 11.495 13 12 C13.185625 11.21625 13.37125 10.4325 13.5625 9.625 C14.25962266 7.02910225 14.25962266 7.02910225 13 5 C10.83927773 4.21376109 8.64509125 3.51798774 6.4375 2.875 C5.23996094 2.52179687 4.04242188 2.16859375 2.80859375 1.8046875 C1.88175781 1.53914063 0.95492187 1.27359375 0 1 C0 0.67 0 0.34 0 0 Z " fill="#A22CE0" transform="translate(159,16)"/>
<path d="M0 0 C0.66 0.33 1.32 0.66 2 1 C0.77937479 2.44475986 -0.45192126 3.88050764 -1.6875 5.3125 C-2.37199219 6.11300781 -3.05648437 6.91351563 -3.76171875 7.73828125 C-6.01677668 10.01695236 -8.19152343 11.48017643 -11 13 C-9.46356148 9.31930113 -7.21849055 7.01224796 -4.375 4.25 C-3.55773437 3.45078125 -2.74046875 2.6515625 -1.8984375 1.828125 C-0.95871094 0.92320313 -0.95871094 0.92320313 0 0 Z " fill="#9B26D9" transform="translate(251,48)"/>
<path d="M0 0 C0.66 0.33 1.32 0.66 2 1 C1.38125 1.2475 0.7625 1.495 0.125 1.75 C-2.11738845 2.80962759 -2.11738845 2.80962759 -2.9375 4.875 C-4.36898744 7.73797489 -6.45441327 9.12430451 -9 11 C-9 8 -9 8 -7.03125 5.95703125 C-6.1959375 5.24933594 -5.360625 4.54164062 -4.5 3.8125 C-3.6646875 3.09707031 -2.829375 2.38164063 -1.96875 1.64453125 C-1.3190625 1.10183594 -0.669375 0.55914062 0 0 Z " fill="#9522D3" transform="translate(558,78)"/>
<path d="M0 0 C0.66 0.33 1.32 0.66 2 1 C-0.12666551 5.55714038 -3.07842821 7.90402227 -7 11 C-5.5140084 6.40693504 -3.14985318 3.56430755 0 0 Z " fill="#5F1786" transform="translate(457,80)"/>
<path d="M0 0 C0.69738281 0.00451172 1.39476562 0.00902344 2.11328125 0.01367188 C3.82555803 0.0253998 5.53779033 0.04333347 7.25 0.0625 C7.25 0.3925 7.25 0.7225 7.25 1.0625 C6.00283203 1.15337891 6.00283203 1.15337891 4.73046875 1.24609375 C3.10044922 1.37177734 3.10044922 1.37177734 1.4375 1.5 C0.35855469 1.58121094 -0.72039062 1.66242188 -1.83203125 1.74609375 C-4.80989905 1.96462461 -4.80989905 1.96462461 -7.75 3.0625 C-9.9375 2.125 -9.9375 2.125 -11.75 1.0625 C-7.88276369 -0.20332219 -4.01848738 -0.0493765 0 0 Z " fill="#9C26D7" transform="translate(487.75,70.9375)"/>
<path d="M0 0 C0.33 0.99 0.66 1.98 1 3 C0.0479279 4.00596297 -0.91187346 5.00461563 -1.875 6 C-2.40867187 6.556875 -2.94234375 7.11375 -3.4921875 7.6875 C-5 9 -5 9 -7 9 C-5.44499019 5.18315774 -2.96404505 2.80804268 0 0 Z " fill="#9220CF" transform="translate(668,92)"/>
<path d="M0 0 C2.97 0.33 5.94 0.66 9 1 C6 3 6 3 4 3 C4.33 3.99 4.66 4.98 5 6 C2.525 5.01 2.525 5.01 0 4 C0 2.68 0 1.36 0 0 Z " fill="#7927A1" transform="translate(188,37)"/>
<path d="M0 0 C2.54384726 1.27192363 2.69368156 2.19948469 3.6875 4.8125 C3.95949219 5.49957031 4.23148437 6.18664062 4.51171875 6.89453125 C5.06812731 9.29376496 4.77364938 10.6894364 4 13 C1.47519307 10.47519307 1.44261367 8.86176966 0.875 5.375 C0.70742188 4.37210937 0.53984375 3.36921875 0.3671875 2.3359375 C0.24601562 1.56507812 0.12484375 0.79421875 0 0 Z " fill="#5F158A" transform="translate(467,122)"/>
<path d="M0 0 C2.08304538 -0.05418326 4.16649768 -0.09287551 6.25 -0.125 C7.99023438 -0.15980469 7.99023438 -0.15980469 9.765625 -0.1953125 C12.82786046 -0.0103949 14.44202751 0.39176977 17 2 C11.25 3.125 11.25 3.125 9 2 C7.46331135 1.77532169 5.92031946 1.59203195 4.375 1.4375 C3.55773437 1.35371094 2.74046875 1.26992187 1.8984375 1.18359375 C1.27195313 1.12300781 0.64546875 1.06242188 0 1 C0 0.67 0 0.34 0 0 Z " fill="#A72AE6" transform="translate(141,14)"/>
<path d="M0 0 C0.99 0.33 1.98 0.66 3 1 C-4.16853933 5.88764045 -4.16853933 5.88764045 -7 7 C-7.66 6.67 -8.32 6.34 -9 6 C-7.57140593 4.96674014 -6.13177617 3.94872366 -4.6875 2.9375 C-3.88699219 2.36902344 -3.08648437 1.80054687 -2.26171875 1.21484375 C-1.51535156 0.81394531 -0.76898438 0.41304688 0 0 Z " fill="#9523D2" transform="translate(467,75)"/>
<path d="M0 0 C0.99 0.33 1.98 0.66 3 1 C3 4.3 3 7.6 3 11 C-0.317124 6.577168 -0.30466674 5.28089024 0 0 Z " fill="#7E19B5" transform="translate(10,133)"/>
<path d="M0 0 C2.31 0 4.62 0 7 0 C5.625 2.5 5.625 2.5 4 5 C3.34 5 2.68 5 2 5 C1.34 3.35 0.68 1.7 0 0 Z " fill="#5B1E7E" transform="translate(602,98)"/>
<path d="M0 0 C4 1 4 1 4 1 Z " fill="#923EB3" transform="translate(646,34)"/>
<path d="M0 0 C3 1 3 1 3 1 Z " fill="#7D2BA3" transform="translate(635,158)"/>
<path d="" fill="#8631AE" transform="translate(0,0)"/>
<path d="" fill="#8031A6" transform="translate(0,0)"/>
<path d="M0 0 C2 1 2 1 2 1 Z " fill="#822FA8" transform="translate(356,158)"/>
<path d="M0 0 C2 1 2 1 2 1 Z " fill="#852AAE" transform="translate(265,158)"/>
<path d="" fill="#812BA4" transform="translate(0,0)"/>
<path d="M0 0 C2 1 2 1 2 1 Z " fill="#7E2AAC" transform="translate(624,138)"/>
<path d="M0 0 C2 1 2 1 2 1 Z " fill="#892DB3" transform="translate(532,122)"/>
<path d="" fill="#932BC9" transform="translate(0,0)"/>
<path d="M0 0 C2 1 2 1 2 1 Z " fill="#913ABD" transform="translate(556,75)"/>
<path d="" fill="#933BC1" transform="translate(0,0)"/>
<path d="" fill="#8E3BB5" transform="translate(0,0)"/>
<path d="M0 0 C2 1 2 1 2 1 Z " fill="#8E30BF" transform="translate(293,65)"/>
<path d="" fill="#9633C7" transform="translate(0,0)"/>
<path d="M0 0 C2 1 2 1 2 1 Z " fill="#9B44BE" transform="translate(654,34)"/>
<path d="" fill="#8032A0" transform="translate(0,0)"/>
<path d="" fill="#8031A0" transform="translate(0,0)"/>
<path d="" fill="#8428B2" transform="translate(0,0)"/>
<path d="" fill="#802EA7" transform="translate(0,0)"/>
<path d="" fill="#8130A9" transform="translate(0,0)"/>
<path d="" fill="#822EAD" transform="translate(0,0)"/>
<path d="" fill="#8235A9" transform="translate(0,0)"/>
<path d="" fill="#8133AA" transform="translate(0,0)"/>
<path d="" fill="#8437AA" transform="translate(0,0)"/>
<path d="" fill="#802EAA" transform="translate(0,0)"/>
<path d="" fill="#822EAC" transform="translate(0,0)"/>
<path d="" fill="#8539A8" transform="translate(0,0)"/>
<path d="" fill="#7E2CA5" transform="translate(0,0)"/>
<path d="" fill="#822CA6" transform="translate(0,0)"/>
<path d="" fill="#822FAC" transform="translate(0,0)"/>
<path d="" fill="#8734B1" transform="translate(0,0)"/>
<path d="" fill="#8249A4" transform="translate(0,0)"/>
<path d="" fill="#8130A6" transform="translate(0,0)"/>
<path d="" fill="#7E28A9" transform="translate(0,0)"/>
<path d="" fill="#7D2FA1" transform="translate(0,0)"/>
<path d="" fill="#7E2AA7" transform="translate(0,0)"/>
<path d="" fill="#8029A7" transform="translate(0,0)"/>
<path d="" fill="#8530A9" transform="translate(0,0)"/>
<path d="" fill="#812BA7" transform="translate(0,0)"/>
<path d="" fill="#8132A9" transform="translate(0,0)"/>
<path d="" fill="#7E2CA8" transform="translate(0,0)"/>
<path d="" fill="#7E28A6" transform="translate(0,0)"/>
<path d="" fill="#802DA6" transform="translate(0,0)"/>
<path d="" fill="#7F29A7" transform="translate(0,0)"/>
<path d="" fill="#842EA7" transform="translate(0,0)"/>
<path d="" fill="#802FA2" transform="translate(0,0)"/>
<path d="" fill="#8530AB" transform="translate(0,0)"/>
<path d="" fill="#8241A1" transform="translate(0,0)"/>
<path d="" fill="#8229A7" transform="translate(0,0)"/>
<path d="" fill="#862BA8" transform="translate(0,0)"/>
<path d="" fill="#8230A7" transform="translate(0,0)"/>
<path d="" fill="#8736AE" transform="translate(0,0)"/>
<path d="" fill="#8B2EB6" transform="translate(0,0)"/>
<path d="" fill="#8E2CB7" transform="translate(0,0)"/>
<path d="" fill="#812BA9" transform="translate(0,0)"/>
<path d="" fill="#8331AB" transform="translate(0,0)"/>
<path d="" fill="#7F2FA9" transform="translate(0,0)"/>
<path d="" fill="#8427B3" transform="translate(0,0)"/>
<path d="" fill="#842EAC" transform="translate(0,0)"/>
<path d="" fill="#8830AF" transform="translate(0,0)"/>
<path d="" fill="#8225B1" transform="translate(0,0)"/>
<path d="" fill="#802CA7" transform="translate(0,0)"/>
<path d="" fill="#7D26AA" transform="translate(0,0)"/>
<path d="" fill="#852BAA" transform="translate(0,0)"/>
<path d="" fill="#882AB2" transform="translate(0,0)"/>
<path d="" fill="#7B23A5" transform="translate(0,0)"/>
<path d="" fill="#842AB0" transform="translate(0,0)"/>
<path d="" fill="#8829B1" transform="translate(0,0)"/>
<path d="" fill="#852DB1" transform="translate(0,0)"/>
<path d="" fill="#8425B1" transform="translate(0,0)"/>
<path d="" fill="#8529B7" transform="translate(0,0)"/>
<path d="" fill="#8427AF" transform="translate(0,0)"/>
<path d="" fill="#862CB0" transform="translate(0,0)"/>
<path d="" fill="#8727B6" transform="translate(0,0)"/>
<path d="" fill="#8629B1" transform="translate(0,0)"/>
<path d="" fill="#872BB3" transform="translate(0,0)"/>
<path d="" fill="#8728B1" transform="translate(0,0)"/>
<path d="" fill="#8B2AB4" transform="translate(0,0)"/>
<path d="" fill="#8A27B9" transform="translate(0,0)"/>
<path d="" fill="#872BB4" transform="translate(0,0)"/>
<path d="" fill="#862AB4" transform="translate(0,0)"/>
<path d="" fill="#8B33B6" transform="translate(0,0)"/>
<path d="" fill="#872CB4" transform="translate(0,0)"/>
<path d="" fill="#8B2FB6" transform="translate(0,0)"/>
<path d="" fill="#8B2EB9" transform="translate(0,0)"/>
<path d="" fill="#8B2EBC" transform="translate(0,0)"/>
<path d="" fill="#892CB9" transform="translate(0,0)"/>
<path d="" fill="#8F35BC" transform="translate(0,0)"/>
<path d="" fill="#8A2DB7" transform="translate(0,0)"/>
<path d="" fill="#8D2DB9" transform="translate(0,0)"/>
<path d="" fill="#8E2DBE" transform="translate(0,0)"/>
<path d="" fill="#8C2BBB" transform="translate(0,0)"/>
<path d="" fill="#892CB2" transform="translate(0,0)"/>
<path d="" fill="#8C2DBA" transform="translate(0,0)"/>
<path d="" fill="#932FC5" transform="translate(0,0)"/>
<path d="" fill="#8E2FB9" transform="translate(0,0)"/>
<path d="" fill="#8C31B8" transform="translate(0,0)"/>
<path d="" fill="#8F2ABE" transform="translate(0,0)"/>
<path d="" fill="#892AB8" transform="translate(0,0)"/>
<path d="" fill="#9334C0" transform="translate(0,0)"/>
<path d="" fill="#8926BB" transform="translate(0,0)"/>
<path d="" fill="#8E30B5" transform="translate(0,0)"/>
<path d="" fill="#8E30B5" transform="translate(0,0)"/>
<path d="" fill="#8A33B5" transform="translate(0,0)"/>
<path d="" fill="#932CC5" transform="translate(0,0)"/>
<path d="" fill="#972EC4" transform="translate(0,0)"/>
<path d="" fill="#8E36B8" transform="translate(0,0)"/>
<path d="" fill="#8C31B8" transform="translate(0,0)"/>
<path d="" fill="#8E32BC" transform="translate(0,0)"/>
<path d="" fill="#9033BF" transform="translate(0,0)"/>
<path d="" fill="#9430C3" transform="translate(0,0)"/>
<path d="" fill="#9033BB" transform="translate(0,0)"/>
<path d="" fill="#8D34BB" transform="translate(0,0)"/>
<path d="" fill="#9334BB" transform="translate(0,0)"/>
<path d="" fill="#8B36B9" transform="translate(0,0)"/>
<path d="" fill="#972FCB" transform="translate(0,0)"/>
<path d="" fill="#8F2DC2" transform="translate(0,0)"/>
<path d="" fill="#952BCB" transform="translate(0,0)"/>
<path d="" fill="#8E34C1" transform="translate(0,0)"/>
<path d="" fill="#8C2FBA" transform="translate(0,0)"/>
<path d="" fill="#8F39B6" transform="translate(0,0)"/>
<path d="" fill="#8F35B7" transform="translate(0,0)"/>
<path d="" fill="#902EBE" transform="translate(0,0)"/>
<path d="" fill="#8A4BA8" transform="translate(0,0)"/>
<path d="" fill="#8D30BC" transform="translate(0,0)"/>
<path d="" fill="#8C4FA9" transform="translate(0,0)"/>
<path d="" fill="#8F2BC1" transform="translate(0,0)"/>
<path d="" fill="#8E3DB6" transform="translate(0,0)"/>
<path d="" fill="#942FC4" transform="translate(0,0)"/>
<path d="" fill="#903DBB" transform="translate(0,0)"/>
<path d="" fill="#912EC1" transform="translate(0,0)"/>
<path d="" fill="#9233C0" transform="translate(0,0)"/>
<path d="" fill="#8F2FC1" transform="translate(0,0)"/>
<path d="" fill="#9736C2" transform="translate(0,0)"/>
<path d="" fill="#9A34CC" transform="translate(0,0)"/>
<path d="" fill="#9A3EC7" transform="translate(0,0)"/>
<path d="" fill="#9444BD" transform="translate(0,0)"/>
<path d="" fill="#9D35CF" transform="translate(0,0)"/>
<path d="" fill="#9C42C5" transform="translate(0,0)"/>
<path d="" fill="#9D33D1" transform="translate(0,0)"/>
<path d="" fill="#8E44B1" transform="translate(0,0)"/>
<path d="" fill="#933CB4" transform="translate(0,0)"/>
<path d="" fill="#9440B7" transform="translate(0,0)"/>
<path d="" fill="#953DB5" transform="translate(0,0)"/>
<path d="" fill="#9641B7" transform="translate(0,0)"/>
<path d="" fill="#9640BB" transform="translate(0,0)"/>
<path d="" fill="#9231C7" transform="translate(0,0)"/>
<path d="" fill="#9345BD" transform="translate(0,0)"/>
<path d="" fill="#9946C0" transform="translate(0,0)"/>
<path d="" fill="#973FC0" transform="translate(0,0)"/>
</svg>
